<svg width="644" height="752" viewBox="0 0 644 752" fill="none" xmlns="http://www.w3.org/2000/svg">
<path d="M317.919 295.931C268.721 270.496 210.717 271.836 162.758 299.526C114.799 327.215 84.6357 376.778 82.0692 432.099L75.8744 565.409C74.8452 587.525 80.8389 608.934 93.1959 627.306C105.555 645.683 123.123 659.297 144.005 666.692C164.888 674.068 187.114 674.518 208.282 667.997C229.45 661.475 247.565 648.581 260.672 630.722L261.546 629.52C294.748 584.967 345.35 555.987 400.621 549.922C414.878 548.356 428.384 543.928 440.54 536.91C447.15 533.094 453.365 528.505 459.086 523.201C475.321 508.134 486.044 488.66 490.099 466.88C494.148 445.109 491.144 423.081 481.41 403.182C471.677 383.283 456.136 367.393 436.464 357.217L317.919 295.931Z" fill="#FFBD54"/>
<path d="M36.4243 458.283C50.8646 440.443 56.3283 417.352 51.806 393.263C47.5058 370.338 34.5367 349.142 15.2806 333.576C-3.97228 318.027 -27.4152 309.794 -50.7346 310.39C-75.228 311.02 -96.6624 321.195 -111.064 339.03C-140.06 374.876 -130.573 430.804 -89.8987 463.724C-57.478 489.899 -14.9298 493.672 15.6809 475.999C23.4971 471.486 30.5345 465.574 36.4243 458.283Z" fill="#FFBD54"/>
<path d="M113.433 312.181C160.023 285.282 172.995 220.214 142.349 167.133C111.696 114.039 48.8535 92.7308 2.26384 119.629C-44.3215 146.525 -57.2842 211.6 -26.6306 264.694C4.01543 317.774 66.848 339.077 113.433 312.181Z" fill="#FFBD54"/>
<path d="M273.01 251.583L273.014 251.58C281.554 249.821 289.522 246.737 296.803 242.533C330.779 222.917 349.614 179.069 340.306 133.769C334.952 107.691 321.118 84.8343 301.355 69.4151C280.67 53.2703 256.048 47.0994 232.017 52.0381C207.983 56.9794 187.789 72.3653 175.148 95.3577C163.071 117.322 159.376 143.78 164.739 169.853C176.046 224.859 224.617 261.523 273.01 251.583Z" fill="#FFBD54"/>
<path d="M444.46 137.616L444.44 137.61C398.608 132.426 356.496 170.456 350.564 222.401C344.669 274.349 377.137 320.865 422.93 326.095C439.635 328.007 455.851 324.169 470 316C494.659 301.762 513.049 274.363 516.836 241.316C522.727 189.371 490.263 142.852 444.46 137.616Z" fill="#FFBD54"/>
</svg>
